<?xml version="1.0" standalone="no"?>
<!DOCTYPE svg PUBLIC "-//W3C//DTD SVG 20010904//EN"
 "http://www.w3.org/TR/2001/REC-SVG-20010904/DTD/svg10.dtd">
<svg version="1.0" xmlns="http://www.w3.org/2000/svg"
 width="700.000000pt" height="700.000000pt" viewBox="0 0 700.000000 700.000000"
 preserveAspectRatio="xMidYMid meet">
<metadata>
Created by potrace 1.11, written by Peter Selinger 2001-2013
</metadata>
<g transform="translate(0.000000,700.000000) scale(0.100000,-0.100000)"
fill="#000000" stroke="none">
<path d="M1350 6993 c-30 -4 -75 -13 -249 -49 -40 -8 -212 -74 -266 -102 -67
-34 -168 -97 -235 -146 -73 -53 -235 -216 -291 -291 -24 -33 -47 -61 -51 -63
-5 -2 -8 -8 -8 -13 0 -5 -16 -34 -36 -64 -80 -127 -171 -369 -190 -511 -3 -27
-10 -71 -14 -99 -12 -71 -11 -4245 1 -4320 5 -33 11 -73 14 -90 34 -216 141
-463 283 -650 123 -162 304 -317 481 -412 131 -70 340 -143 456 -158 28 -4 73
-11 100 -16 61 -10 4320 -6 4355 4 14 4 41 10 60 13 188 30 406 119 590 242
88 60 289 252 351 337 151 206 247 445 287 710 9 66 9 4292 -1 4370 -4 33 -18
105 -31 160 -70 287 -191 500 -400 711 -139 139 -280 237 -451 313 -96 42
-270 96 -345 105 -25 4 -70 10 -100 15 -53 9 -4234 12 -4310 4z"/>
</g>
</svg>
